HIERARCHY
ROOT Hips
{
	OFFSET 0.00000 0.00000 0.00000
	CHANNELS 6 Xposition Yposition Zposition Zrotation Yrotation Xrotation 
	JOINT LHipJoint
	{
		OFFSET 0 0 0
		CHANNELS 3 Zrotation Yrotation Xrotation
		JOINT LeftUpLeg
		{
			OFFSET 2.36090 -1.39315 1.24752
			CHANNELS 3 Zrotation Yrotation Xrotation
			JOINT LeftLeg
			{
				OFFSET 2.06810 -5.68207 0.00000
				CHANNELS 3 Zrotation Yrotation Xrotation
				JOINT LeftFoot
				{
					OFFSET 2.46631 -6.77613 0.00000
					CHANNELS 3 Zrotation Yrotation Xrotation
					JOINT LeftToeBase
					{
						OFFSET 0.26031 -0.71520 1.99545
						CHANNELS 3 Zrotation Yrotation Xrotation
						End Site
						{
							OFFSET 0.00000 -0.00000 1.05957
						}
					}
				}
			}
		}
	}
	JOINT RHipJoint
	{
		OFFSET 0 0 0
		CHANNELS 3 Zrotation Yrotation Xrotation
		JOINT RightUpLeg
		{
			OFFSET -2.25243 -1.39315 1.24752
			CHANNELS 3 Zrotation Yrotation Xrotation
			JOINT RightLeg
			{
				OFFSET -2.17343 -5.97145 0.00000
				CHANNELS 3 Zrotation Yrotation Xrotation
				JOINT RightFoot
				{
					OFFSET -2.52372 -6.93386 0.00000
					CHANNELS 3 Zrotation Yrotation Xrotation
					JOINT RightToeBase
					{
						OFFSET -0.22538 -0.61923 2.11447
						CHANNELS 3 Zrotation Yrotation Xrotation
						End Site
						{
							OFFSET -0.00000 -0.00000 1.10506
						}
					}
				}
			}
		}
	}
	JOINT LowerBack
	{
		OFFSET 0 0 0
		CHANNELS 3 Zrotation Yrotation Xrotation
		JOINT Spine
		{
			OFFSET 0.01594 2.13103 0.08007
			CHANNELS 3 Zrotation Yrotation Xrotation
			JOINT Spine1
			{
				OFFSET 0.01393 2.09723 0.18338
				CHANNELS 3 Zrotation Yrotation Xrotation
				JOINT Neck
				{
					OFFSET 0 0 0
					CHANNELS 3 Zrotation Yrotation Xrotation
					JOINT Neck1
					{
						OFFSET 0.05351 1.38915 0.32494
						CHANNELS 3 Zrotation Yrotation Xrotation
						JOINT Head
						{
							OFFSET 0.00711 1.45992 -0.21666
							CHANNELS 3 Zrotation Yrotation Xrotation
							End Site
							{
								OFFSET -0.00433 1.47702 -0.11056
							}
						}
					}
				}
				JOINT LeftShoulder
				{
					OFFSET 0 0 0
					CHANNELS 3 Zrotation Yrotation Xrotation
					JOINT LeftArm
					{
						OFFSET 2.87198 0.92249 0.11132
						CHANNELS 3 Zrotation Yrotation Xrotation
						JOINT LeftForeArm
						{
							OFFSET 5.52731 -0.00000 0.00000
							CHANNELS 3 Zrotation Yrotation Xrotation
							JOINT LeftHand
							{
								OFFSET 3.11059 -0.00000 0.00000
								CHANNELS 3 Zrotation Yrotation Xrotation
								JOINT LeftFingerBase
								{
									OFFSET 0 0 0
									CHANNELS 3 Zrotation Yrotation Xrotation
									JOINT LeftHandIndex1
									{
										OFFSET 0.41963 -0.00000 0.00000
										CHANNELS 3 Zrotation Yrotation Xrotation
										End Site
										{
											OFFSET 0.33831 -0.00000 0.00000
										}
									}
								}
								JOINT LThumb
								{
									OFFSET 0 0 0
									CHANNELS 3 Zrotation Yrotation Xrotation
									End Site
									{
										OFFSET 0.34348 -0.00000 0.34348
									}
								}
							}
						}
					}
				}
				JOINT RightShoulder
				{
					OFFSET 0 0 0
					CHANNELS 3 Zrotation Yrotation Xrotation
					JOINT RightArm
					{
						OFFSET -2.94710 0.68072 0.32187
						CHANNELS 3 Zrotation Yrotation Xrotation
						JOINT RightForeArm
						{
							OFFSET -5.25396 -0.00000 -0.00000
							CHANNELS 3 Zrotation Yrotation Xrotation
							JOINT RightHand
							{
								OFFSET -3.10567 -0.00000 0.00000
								CHANNELS 3 Zrotation Yrotation Xrotation
								JOINT RightFingerBase
								{
									OFFSET 0 0 0
									CHANNELS 3 Zrotation Yrotation Xrotation
									JOINT RightHandIndex1
									{
										OFFSET -0.49868 -0.00000 0.00000
										CHANNELS 3 Zrotation Yrotation Xrotation
										End Site
										{
											OFFSET -0.40204 -0.00000 0.00000
										}
									}
								}
								JOINT RThumb
								{
									OFFSET 0 0 0
									CHANNELS 3 Zrotation Yrotation Xrotation
									End Site
									{
										OFFSET -0.40818 -0.00000 0.40818
									}
								}
							}
						}
					}
				}
			}
		}
	}
}
MOTION
Frames: 15
Frame Time: .0083333
3.9432 14.6487 25.2965 0 0 0 0 0 0 -21 0 0 0 0 0 0 0 0 0 0 0 0 0 0 21 0 0 0 0 0 0 0 0 0 0 0 0 0 0 0 0 0 0 0 0 0 0 -16 0 0 21 0 0 11 0 0 0 -8 0 0 0 0 0 0 0 0 0 0 0 0 0 0 0 0 0 0 0 0 8 0 0 0 0 0 0 0 0 0 0 0 0 0 0 0 0 0
3.9432 14.6487 25.2965 -178.8610 7.4943 -142.6850 0.0000 0.0000 0.0000 -10.2811 -19.7034 -65.8719 7.0688 15.3895 49.1339 1.0432 4.0168 -21.1368 0.0879 -1.9120 -5.2624 0.0000 0.0000 0.0000 6.6440 21.9044 -71.7116 -9.3679 -17.0387 57.3541 -0.8373 -10.6456 -24.2167 -0.0244 1.0075 -2.7696 -6.2142 2.1860 -6.0001 -5.3527 3.8319 -0.3533 -1.7365 1.9953 2.9816 10.2522 9.0749 -21.0987 -6.5540 10.6802 17.1102 -2.3268 4.9182 9.8050 -0.0000 -0.0000 0.0000 -72.6267 -15.9360 38.7211 14.9006 -24.0074 -3.1854 -0.0000 0.0000 -42.6676 31.1884 -2.9982 -1.8135 -7.1250 0.0000 -0.0000 3.4896 26.4731 -1.5708 -0.0000 -0.0000 0.0000 80.5531 10.6610 37.0372 -30.3045 41.1529 -11.6095 0.0000 -0.0000 -8.6457 -11.3780 -17.2882 3.4224 7.1250 -0.0000 -0.0000 15.7193 -46.9649 -0.7809
3.9591 14.6181 25.2995 -178.9760 7.2215 -142.4390 0.0000 0.0000 0.0000 -10.1438 -19.8291 -66.5732 7.2149 15.5102 49.6825 1.0634 3.7738 -21.1831 0.0934 -1.9715 -5.4268 0.0000 0.0000 0.0000 6.8258 21.3845 -72.3917 -9.5396 -17.1427 57.9381 -0.8927 -10.2220 -24.3032 -0.0313 1.1417 -3.1389 -6.1002 2.1211 -5.7530 -5.2026 3.6969 -0.2590 -1.6636 1.9210 2.9381 9.8166 8.7508 -21.5536 -6.4254 10.3030 17.1624 -2.2646 4.7197 9.8367 0.0000 -0.0000 0.0000 -72.7434 -16.2122 39.0511 14.8987 -24.0048 -3.1846 -0.0000 0.0000 -42.6156 31.3978 -2.9795 -1.8171 -7.1250 0.0000 -0.0000 3.6497 26.4869 -1.6420 0.0000 -0.0000 0.0000 80.2777 11.2698 37.1069 -30.3833 41.2197 -11.6614 0.0000 -0.0000 -8.7173 -11.5146 -17.2619 3.4594 7.1250 -0.0000 -0.0000 15.5852 -46.9572 -0.7709
3.9769 14.5868 25.2996 -179.1010 6.9471 -142.2310 0.0000 0.0000 0.0000 -10.0894 -19.8488 -67.2524 7.3723 15.6375 50.2687 1.0912 3.3620 -21.2105 0.0895 -1.9295 -5.3108 0.0000 0.0000 0.0000 6.9391 20.9417 -73.0612 -9.7244 -17.2520 58.5633 -0.9223 -10.0207 -24.3743 -0.0427 1.3331 -3.6659 -6.0040 2.0492 -5.4922 -5.0485 3.5551 -0.1452 -1.5769 1.8427 2.9062 9.3870 8.4667 -21.9941 -6.2847 9.9793 17.1542 -2.1909 4.5489 9.8506 -0.0000 0.0000 0.0000 -72.8583 -16.5211 39.2722 14.8845 -23.9850 -3.1788 -0.0000 0.0000 -42.3842 31.4894 -2.9089 -1.7805 -7.1250 0.0000 -0.0000 3.7236 26.5659 -1.6685 -0.0000 0.0000 0.0000 79.9662 11.9377 37.2471 -30.4193 41.2501 -11.6851 0.0000 -0.0000 -8.8784 -11.7016 -17.2901 3.5226 7.1250 -0.0000 -0.0000 15.4238 -47.0094 -0.7828
3.9957 14.5506 25.3011 -179.2060 6.6658 -141.9870 0.0000 0.0000 0.0000 -10.0565 -19.7678 -68.0289 7.5370 15.7679 50.8774 1.1235 2.8302 -21.2266 0.0871 -1.9034 -5.2388 0.0000 0.0000 0.0000 7.0037 20.5581 -73.8122 -9.9140 -17.3612 59.2005 -0.9585 -9.6573 -24.3650 -0.0514 1.4625 -4.0223 -5.8238 2.0074 -5.1860 -4.9389 3.4461 -0.0683 -1.5827 1.7851 2.8177 9.0271 8.1510 -22.3289 -6.1557 9.6015 17.0911 -2.1446 4.3593 9.8286 -0.0000 0.0000 0.0000 -72.8736 -16.8669 39.5858 14.9109 -24.0219 -3.1896 -0.0000 0.0000 -42.1312 31.6214 -3.1730 -1.9519 -7.1250 0.0000 -0.0000 3.8071 26.2518 -1.7341 -0.0000 0.0000 0.0000 79.7522 12.5248 37.2751 -30.4916 41.3111 -11.7328 0.0000 -0.0000 -8.9802 -11.9197 -17.3268 3.5973 7.1250 -0.0000 -0.0000 15.2370 -47.0741 -0.7977
4.0142 14.5146 25.3023 -179.3170 6.3898 -141.7490 0.0000 0.0000 0.0000 -10.0038 -19.7319 -68.7938 7.7088 15.9009 51.5069 1.1523 2.3571 -21.2532 0.0854 -1.8853 -5.1887 0.0000 0.0000 0.0000 7.0967 20.1486 -74.5491 -10.1103 -17.4714 59.8565 -0.9976 -9.3304 -24.4164 -0.0613 1.5973 -4.3939 -5.6712 1.9501 -4.8932 -4.8077 3.3200 0.0184 -1.5505 1.7177 2.7439 8.6513 7.8570 -22.7038 -6.0256 9.2588 17.0446 -2.0882 4.1842 9.8232 -0.0000 0.0000 0.0000 -72.9295 -17.1978 39.8453 14.9369 -24.0581 -3.2002 -0.0000 0.0000 -41.8973 31.6914 -3.3359 -2.0575 -7.1250 0.0000 -0.0000 3.8496 26.0583 -1.7709 -0.0000 0.0000 0.0000 79.4830 13.1614 37.3639 -30.5353 41.3479 -11.7617 0.0000 -0.0000 -9.1240 -12.1213 -17.3643 3.6675 7.1250 -0.0000 -0.0000 15.0650 -47.1374 -0.8123
4.0332 14.4771 25.3031 -179.4250 6.1184 -141.5130 0.0000 0.0000 0.0000 -9.9667 -19.6601 -69.5804 7.8917 16.0390 52.1716 1.1805 1.8432 -21.2670 0.0826 -1.8537 -5.1015 0.0000 0.0000 0.0000 7.1892 19.7520 -75.2927 -10.3136 -17.5825 60.5315 -1.0379 -9.0005 -24.4802 -0.0710 1.7196 -4.7314 -5.5061 1.8942 -4.5845 -4.6791 3.1958 0.1063 -1.5278 1.6517 2.6632 8.2934 7.5757 -23.0824 -5.8956 8.9295 16.9883 -2.0325 4.0165 9.8187 -0.0000 -0.0000 0.0000 -72.9701 -17.5439 40.0872 14.9824 -24.1215 -3.2187 -0.0000 0.0000 -41.6525 31.7235 -3.5690 -2.2037 -7.1250 0.0000 -0.0000 3.8582 25.7838 -1.7997 -0.0000 -0.0000 0.0000 79.2085 13.8205 37.4647 -30.5622 41.3705 -11.7795 0.0000 -0.0000 -9.2929 -12.3371 -17.4140 3.7450 7.1250 -0.0000 -0.0000 14.8841 -47.2148 -0.8311
4.0525 14.4383 25.3038 -179.5250 5.8536 -141.2800 0.0000 0.0000 0.0000 -9.9409 -19.5576 -70.3878 8.0844 16.1810 52.8663 1.2059 1.2995 -21.2570 0.0783 -1.8050 -4.9670 0.0000 0.0000 0.0000 7.2927 19.3602 -76.0389 -10.5221 -17.6932 61.2197 -1.0806 -8.6606 -24.5606 -0.0804 1.8295 -5.0348 -5.3264 1.8410 -4.2594 -4.5544 3.0749 0.1953 -1.5171 1.5880 2.5750 7.9536 7.3059 -23.4717 -5.7669 8.6120 16.9307 -1.9780 3.8553 9.8188 0.0000 -0.0000 0.0000 -72.9923 -17.9062 40.3291 15.0493 -24.2148 -3.2461 -0.0000 0.0000 -41.4276 31.7496 -3.8600 -2.3854 -7.1250 0.0000 -0.0000 3.8580 25.4417 -1.8304 0.0000 -0.0000 0.0000 78.9309 14.5009 37.5758 -30.5743 41.3806 -11.7874 0.0000 -0.0000 -9.4875 -12.5640 -17.4791 3.8297 7.1250 -0.0000 -0.0000 14.6978 -47.3092 -0.8552
4.0721 14.3978 25.3046 -179.6200 5.6005 -141.0450 0.0000 0.0000 0.0000 -9.9263 -19.4239 -71.2239 8.2897 16.3282 53.5996 1.2286 0.7264 -21.2268 0.0725 -1.7371 -4.7796 0.0000 0.0000 0.0000 7.4069 18.9740 -76.7919 -10.7358 -17.8033 61.9205 -1.1254 -8.3190 -24.6619 -0.0896 1.9308 -5.3146 -5.1398 1.7894 -3.9233 -4.4333 2.9573 0.2869 -1.5135 1.5263 2.4836 7.6284 7.0499 -23.8816 -5.6359 8.3087 16.8732 -1.9223 3.7017 9.8256 0.0000 -0.0000 0.0000 -72.9969 -18.2791 40.5629 15.1431 -24.3451 -3.2847 -0.0000 0.0000 -41.2291 31.7895 -4.1706 -2.5808 -7.1250 0.0000 -0.0000 3.8662 25.0759 -1.8673 0.0000 -0.0000 0.0000 78.6506 15.2102 37.6961 -30.5684 41.3757 -11.7836 0.0000 -0.0000 -9.7085 -12.7923 -17.5593 3.9187 7.1250 -0.0000 -0.0000 14.5151 -47.4188 -0.8841
4.0925 14.3555 25.3057 -179.6930 5.3804 -140.7940 0.0000 0.0000 0.0000 -9.9109 -19.2380 -72.1123 8.5102 16.4820 54.3801 1.2492 0.1242 -21.1853 0.0649 -1.6438 -4.5222 0.0000 0.0000 0.0000 7.5328 18.6192 -77.5678 -10.9535 -17.9123 62.6306 -1.1709 -7.9794 -24.7734 -0.0988 2.0269 -5.5800 -4.9518 1.7482 -3.5966 -4.3163 2.8568 0.3773 -1.5129 1.4733 2.3962 7.3216 6.8036 -24.3045 -5.5078 8.0140 16.8128 -1.8692 3.5528 9.8364 0.0000 0.0000 0.0000 -72.9827 -18.6680 40.7961 15.2612 -24.5088 -3.3336 -0.0000 0.0000 -41.0648 31.8824 -4.4811 -2.7823 -7.1250 0.0000 -0.0000 3.9131 24.7069 -1.9236 0.0000 0.0000 0.0000 78.3696 15.9416 37.8199 -30.5526 41.3624 -11.7731 0.0000 -0.0000 -9.9557 -13.0117 -17.6656 4.0113 7.1250 -0.0000 -0.0000 14.3495 -47.5530 -0.9220
4.1136 14.3112 25.3073 -179.7410 5.1964 -140.5230 0.0000 0.0000 0.0000 -9.8913 -18.9988 -73.0568 8.7466 16.6419 55.2097 1.2697 -0.5091 -21.1496 0.0566 -1.5345 -4.2210 0.0000 0.0000 0.0000 7.6726 18.2982 -78.3719 -11.1753 -18.0198 63.3496 -1.2173 -7.6358 -24.8943 -0.1079 2.1180 -5.8318 -4.7647 1.7206 -3.2831 -4.2047 2.7774 0.4640 -1.5154 1.4311 2.3122 7.0262 6.5627 -24.7337 -5.3763 7.7235 16.7438 -1.8162 3.4071 9.8469 -0.0000 -0.0000 0.0000 -72.9500 -19.0730 41.0279 15.4034 -24.7051 -3.3928 -0.0000 0.0000 -40.9272 32.0200 -4.7665 -2.9746 -7.1250 0.0000 -0.0000 3.9943 24.3642 -1.9954 -0.0000 -0.0000 0.0000 78.0931 16.6909 37.9359 -30.5261 41.3401 -11.7556 0.0000 -0.0000 -10.2078 -13.2252 -17.8073 4.1108 7.1250 -0.0000 -0.0000 14.2010 -47.7218 -0.9722
4.1355 14.2642 25.3098 -179.7660 5.0524 -140.2230 0.0000 0.0000 0.0000 -9.8624 -18.7072 -74.0723 9.0001 16.8078 56.0906 1.2908 -1.1704 -21.1305 0.0483 -1.4189 -3.9022 0.0000 0.0000 0.0000 7.8209 18.0167 -79.2229 -11.4027 -18.1266 64.0827 -1.2640 -7.2904 -25.0202 -0.1168 2.2032 -6.0675 -4.5830 1.7087 -2.9908 -4.1002 2.7225 0.5390 -1.5202 1.4014 2.2279 6.7514 6.3282 -25.1508 -5.2492 7.4375 16.6579 -1.7680 3.2648 9.8517 -0.0000 0.0000 0.0000 -72.8996 -19.4898 41.2610 15.5690 -24.9328 -3.4623 -0.0000 0.0000 -40.8085 32.2074 -4.9963 -3.1401 -7.1250 0.0000 -0.0000 4.1156 24.0827 -2.0831 -0.0000 0.0000 0.0000 77.8238 17.4439 38.0343 -30.4904 41.3100 -11.7320 0.0000 -0.0000 -10.4537 -13.4225 -17.9565 4.2079 7.1250 -0.0000 -0.0000 14.0697 -47.8962 -1.0244
4.1583 14.2147 25.3132 -179.7710 4.9421 -139.8870 0.0000 0.0000 0.0000 -9.8248 -18.3728 -75.1593 9.2689 16.9777 57.0155 1.3123 -1.8543 -21.1292 0.0412 -1.3106 -3.6037 0.0000 0.0000 0.0000 7.9771 17.7674 -80.1290 -11.6367 -18.2328 64.8326 -1.3115 -6.9424 -25.1551 -0.1243 2.2728 -6.2601 -4.4113 1.7099 -2.7280 -3.9996 2.6889 0.6022 -1.5215 1.3824 2.1475 6.4892 6.0967 -25.5607 -5.1258 7.1536 16.5610 -1.7233 3.1242 9.8531 -0.0000 -0.0000 0.0000 -72.8404 -19.9268 41.4892 15.7509 -25.1817 -3.5393 -0.0000 0.0000 -40.6971 32.4294 -5.1871 -3.2875 -7.1250 0.0000 -0.0000 4.2644 23.8437 -2.1824 -0.0000 -0.0000 0.0000 77.5566 18.2060 38.1110 -30.4380 41.2658 -11.6974 0.0000 -0.0000 -10.6838 -13.6011 -18.1151 4.3021 7.1250 -0.0000 -0.0000 13.9590 -48.0778 -1.0796
4.1815 14.1624 25.3178 -179.7690 4.8487 -139.5150 0.0000 0.0000 0.0000 -9.7762 -18.0209 -76.3166 9.5508 17.1494 57.9761 1.3334 -2.5497 -21.1425 0.0357 -1.2189 -3.3513 0.0000 0.0000 0.0000 8.1394 17.5306 -81.0990 -11.8792 -18.3391 65.6055 -1.3604 -6.5869 -25.2988 -0.1298 2.3226 -6.3981 -4.2449 1.7164 -2.4914 -3.9028 2.6653 0.6507 -1.5227 1.3687 2.0666 6.2356 5.8699 -25.9581 -5.0028 6.8749 16.4518 -1.6798 2.9868 9.8495 0.0000 -0.0000 0.0000 -72.7743 -20.3786 41.6974 15.9490 -25.4514 -3.6240 -0.0000 0.0000 -40.5918 32.6096 -5.3798 -3.4327 -7.1250 0.0000 -0.0000 4.3814 23.6044 -2.2668 0.0000 -0.0000 0.0000 77.2882 18.9816 38.1756 -30.3583 41.1985 -11.6449 0.0000 -0.0000 -10.8966 -13.7599 -18.2700 4.3900 7.1250 -0.0000 -0.0000 13.8653 -48.2532 -1.1330
4.2046 14.1082 25.3227 -179.7610 4.7671 -139.1510 0.0000 0.0000 0.0000 -9.7401 -17.6493 -77.4793 9.8418 17.3199 58.9582 1.3532 -3.2528 -21.1647 0.0311 -1.1382 -3.1292 0.0000 0.0000 0.0000 8.3249 17.2908 -82.0732 -12.1288 -18.4445 66.3963 -1.4116 -6.2194 -25.4568 -0.1336 2.3559 -6.4902 -4.0715 1.7308 -2.2416 -3.8130 2.6528 0.6973 -1.5351 1.3610 1.9769 5.9960 5.6443 -26.3370 -4.8794 6.5946 16.3307 -1.6394 2.8501 9.8397 0.0000 -0.0000 0.0000 -72.6991 -20.8466 41.8977 16.1618 -25.7395 -3.7159 -0.0000 0.0000 -40.4864 32.7676 -5.5890 -3.5870 -7.1250 0.0000 -0.0000 4.4798 23.3462 -2.3447 0.0000 -0.0000 0.0000 77.0248 19.7637 38.2140 -30.2542 41.1103 -11.5764 0.0000 -0.0000 -11.0810 -13.8965 -18.3426 4.4521 7.1250 -0.0000 -0.0000 13.7633 -48.3444 -1.1558
